<svg width="19" height="19" viewBox="0 0 19 19" fill="none" xmlns="http://www.w3.org/2000/svg">
<path id="Vector" d="M18 14.0769V16.6923C18 17.0391 17.8622 17.3717 17.617 17.617C17.3717 17.8622 17.0391 18 16.6923 18H14.0769M14.0769 1H16.6923C17.0391 1 17.3717 1.13777 17.617 1.38301C17.8622 1.62825 18 1.96087 18 2.30769V4.92308M1 4.92308V2.30769C1 1.96087 1.13777 1.62825 1.38301 1.38301C1.62825 1.13777 1.96087 1 2.30769 1H4.92308M4.92308 18H2.30769C1.96087 18 1.62825 17.8622 1.38301 17.617C1.13777 17.3717 1 17.0391 1 16.6923V14.0769M5.57692 4.92308V7.53846M13.4231 4.92308V7.53846M9.5 6.23077V10.8077H7.53846M6.23077 13.4231C7.11296 14.2611 8.28325 14.7283 9.5 14.7283C10.7167 14.7283 11.887 14.2611 12.7692 13.4231" stroke="white" stroke-width="2" stroke-linecap="round" stroke-linejoin="round"/>
</svg>
