<svg width="79" height="63" viewBox="0 0 79 63" fill="none" xmlns="http://www.w3.org/2000/svg">
<path d="M26.305 38.4993C22.3616 38.4993 19.1463 34.9162 19.1463 30.5293C19.1463 26.1461 22.282 22.5668 26.3088 22.5668C30.29 22.5668 33.5509 26.1461 33.4712 30.5293C33.4712 34.9162 30.29 38.4993 26.305 38.4993ZM52.7481 38.4993C48.8047 38.4993 45.5818 34.9162 45.5818 30.5293C45.5818 26.1461 48.7251 22.5668 52.7481 22.5668C56.7293 22.5668 59.9901 26.1461 59.9143 30.5293C59.9143 34.9162 56.771 38.4993 52.7481 38.4993ZM32.3906 2.3913L31.2228 0.256592L28.8189 0.654717C23.3709 1.5631 18.0687 3.19532 13.0531 5.50805L12.1886 5.90997L11.6502 6.70243C1.74256 21.3155 -0.976063 35.7011 0.369979 49.8364L0.517854 51.3758L1.7691 52.2858C7.59762 56.5624 14.1074 59.8225 21.0232 61.928L24.0186 62.8456L28.2387 52.5437C35.4808 54.3333 43.5191 54.3371 50.7574 52.5437L54.9548 62.8494L57.9502 61.928C64.8712 59.828 71.3847 56.5662 77.2119 52.2821L78.4518 51.3796L78.6034 49.8554C80.2566 33.4754 75.9606 19.2036 67.3877 6.68726L66.8493 5.90238L65.9848 5.50805C60.9704 3.20588 55.6747 1.57407 50.2342 0.654717L47.8909 0.264175L46.7004 2.31547C46.3478 2.92887 46.0152 3.55356 45.7031 4.18855C41.59 3.76367 37.4441 3.76367 33.3309 4.18855C33.0289 3.58358 32.7154 2.98439 32.3906 2.3913ZM19.461 48.9795C20.208 49.4118 20.9966 49.8364 21.7739 50.2232L20.0715 54.3788C15.4669 52.7002 11.0982 50.4343 7.07365 47.6373C6.22052 35.7352 8.6396 23.7308 16.7955 11.351C20.2374 9.83514 23.8253 8.67518 27.5031 7.88922C27.7306 8.36317 27.943 8.82576 28.1174 9.23905L29.1525 11.6771L31.7764 11.2941C36.9182 10.5408 42.1424 10.5408 47.2843 11.2941L49.9005 11.6733L50.9319 9.23905C51.1101 8.81438 51.3186 8.3518 51.5385 7.88922C55.243 8.68547 58.8299 9.85709 62.2614 11.3586C69.3707 22.0511 72.9576 33.9797 71.9149 47.6335C67.8906 50.4354 63.5188 52.7016 58.9095 54.3751L57.2222 50.227C58.0033 49.8364 58.792 49.4118 59.5465 48.9795C61.4044 47.9103 63.4026 46.5756 64.6766 45.3016L59.8233 40.4483C59.2053 41.0701 57.8403 42.0408 56.1189 43.0342C54.4354 44.0048 52.7632 44.7897 51.694 45.1423C44.0993 47.6562 34.9045 47.6562 27.306 45.1423C26.2405 44.7897 24.5684 44.0048 22.8849 43.0342C21.1635 42.0445 19.7985 41.0701 19.1766 40.4483L14.3233 45.3016C15.6011 46.5756 17.6031 47.9103 19.461 48.9795Z" fill="white"/>
</svg>
