<svg width="17" height="17" viewBox="0 0 17 17" fill="none" xmlns="http://www.w3.org/2000/svg">
<path d="M8.0927 0C3.62148 0 1.18116e-06 3.90006 1.18116e-06 8.71521C-0.000916707 10.5448 0.533159 12.3282 1.52646 13.8125C2.51976 15.2967 3.92184 16.4064 5.53379 16.9842C5.93842 17.06 6.08975 16.7986 6.08975 16.5694C6.08975 16.3628 6.07923 15.6769 6.07923 14.9466C4.04635 15.3501 3.52032 14.4132 3.35847 13.9225C3.26702 13.6716 2.87291 12.8985 2.52897 12.6911C2.24572 12.5281 1.84109 12.1246 2.51845 12.1141C3.15615 12.1028 3.61096 12.746 3.7631 13.0075C4.49145 14.3252 5.65518 13.9548 6.1197 13.7265C6.19091 13.16 6.40294 12.7791 6.63601 12.5612C4.83539 12.3434 2.95384 11.5912 2.95384 8.25766C2.95384 7.30945 3.26702 6.52595 3.78334 5.91501C3.70241 5.69713 3.41917 4.80382 3.86426 3.60548C3.86426 3.60548 4.54162 3.37714 6.08975 4.49966C6.74855 4.30275 7.42923 4.20365 8.11293 4.20509C8.80081 4.20509 9.48869 4.3027 10.1361 4.49879C11.6834 3.36581 12.3616 3.60635 12.3616 3.60635C12.8067 4.8047 12.5234 5.698 12.4425 5.91588C12.958 6.52595 13.272 7.29899 13.272 8.25766C13.272 11.6026 11.3808 12.3434 9.58013 12.5612C9.87309 12.8331 10.1264 13.3561 10.1264 14.1735C10.1264 15.3388 10.1159 16.2757 10.1159 16.5702C10.1159 16.7986 10.268 17.0705 10.6726 16.9833C12.2791 16.3992 13.675 15.2873 14.6639 13.8042C15.6528 12.321 16.1849 10.5411 16.1854 8.71521C16.1854 3.90006 12.5639 0 8.0927 0Z" fill="#FAFAFA"/>
</svg>
