<svg width="16" height="16" viewBox="0 0 16 16" fill="none" xmlns="http://www.w3.org/2000/svg">
<path d="M4.5231 0.245117H10.7981C13.1885 0.245117 15.1308 2.18736 15.1308 4.57782V10.8528C15.1308 12.0019 14.6743 13.1039 13.8617 13.9165C13.0492 14.729 11.9472 15.1855 10.7981 15.1855H4.5231C2.13265 15.1855 0.190399 13.2432 0.190399 10.8528V4.57782C0.190399 3.42872 0.646879 2.32668 1.45942 1.51414C2.27196 0.701597 3.374 0.245117 4.5231 0.245117ZM4.3737 1.73915C3.66046 1.73915 2.97644 2.02249 2.4721 2.52682C1.96777 3.03116 1.68444 3.71518 1.68444 4.42842V11.0022C1.68444 12.4887 2.88713 13.6914 4.3737 13.6914H10.9475C11.6607 13.6914 12.3447 13.4081 12.8491 12.9038C13.3534 12.3994 13.6367 11.7154 13.6367 11.0022V4.42842C13.6367 2.94185 12.434 1.73915 10.9475 1.73915H4.3737ZM11.5824 2.85968C11.8301 2.85968 12.0676 2.95806 12.2427 3.13318C12.4178 3.30829 12.5162 3.5458 12.5162 3.79345C12.5162 4.0411 12.4178 4.27861 12.2427 4.45373C12.0676 4.62885 11.8301 4.72723 11.5824 4.72723C11.3348 4.72723 11.0973 4.62885 10.9221 4.45373C10.747 4.27861 10.6487 4.0411 10.6487 3.79345C10.6487 3.5458 10.747 3.30829 10.9221 3.13318C11.0973 2.95806 11.3348 2.85968 11.5824 2.85968ZM7.66058 3.98021C8.65119 3.98021 9.60122 4.37372 10.3017 5.07419C11.0022 5.77465 11.3957 6.72469 11.3957 7.7153C11.3957 8.7059 11.0022 9.65594 10.3017 10.3564C9.60122 11.0569 8.65119 11.4504 7.66058 11.4504C6.66997 11.4504 5.71994 11.0569 5.01947 10.3564C4.31901 9.65594 3.92549 8.7059 3.92549 7.7153C3.92549 6.72469 4.31901 5.77465 5.01947 5.07419C5.71994 4.37372 6.66997 3.98021 7.66058 3.98021ZM7.66058 5.47424C7.06621 5.47424 6.49619 5.71035 6.07591 6.13063C5.65563 6.55091 5.41953 7.12093 5.41953 7.7153C5.41953 8.30966 5.65563 8.87968 6.07591 9.29996C6.49619 9.72024 7.06621 9.95635 7.66058 9.95635C8.25494 9.95635 8.82496 9.72024 9.24524 9.29996C9.66552 8.87968 9.90163 8.30966 9.90163 7.7153C9.90163 7.12093 9.66552 6.55091 9.24524 6.13063C8.82496 5.71035 8.25494 5.47424 7.66058 5.47424Z" fill="#FAFAFA"/>
</svg>
