<svg width="16" height="15" viewBox="0 0 16 15" fill="none" xmlns="http://www.w3.org/2000/svg">
<path d="M2.13871 14.1853C1.72785 14.1853 1.37626 14.0209 1.08392 13.692C0.791092 13.3626 0.644676 12.9668 0.644676 12.5045V2.4198C0.644676 1.95759 0.791092 1.56204 1.08392 1.23317C1.37626 0.903731 1.72785 0.739014 2.13871 0.739014H14.091C14.5019 0.739014 14.8537 0.903731 15.1465 1.23317C15.4389 1.56204 15.585 1.95759 15.585 2.4198V12.5045C15.585 12.9668 15.4389 13.3626 15.1465 13.692C14.8537 14.0209 14.5019 14.1853 14.091 14.1853H2.13871ZM8.11486 8.30257L2.13871 4.10059V12.5045H14.091V4.10059L8.11486 8.30257ZM8.11486 6.62178L14.091 2.4198H2.13871L8.11486 6.62178ZM2.13871 4.10059V2.4198V12.5045V4.10059Z" fill="#FAFAFA"/>
</svg>
