<svg width="17" height="15" viewBox="0 0 17 15" fill="none" xmlns="http://www.w3.org/2000/svg">
<path d="M16.9828 2.32386C16.3779 2.6007 15.7259 2.78262 15.0503 2.86963C15.7416 2.45042 16.2758 1.78601 16.5272 0.987141C15.8752 1.38262 15.1524 1.65946 14.3904 1.81765C13.7698 1.13742 12.8978 0.741943 11.908 0.741943C10.0618 0.741943 8.55352 2.26059 8.55352 4.13516C8.55352 4.40409 8.58495 4.66511 8.63994 4.9103C5.84326 4.76793 3.35296 3.41539 1.69538 1.3668C1.40472 1.86511 1.23974 2.45042 1.23974 3.06737C1.23974 4.2459 1.82893 5.28996 2.74021 5.88318C2.18244 5.88318 1.66396 5.72499 1.20832 5.4877V5.51143C1.20832 7.15663 2.37098 8.5329 3.91073 8.84138C3.41638 8.97759 2.8974 8.99654 2.39455 8.89674C2.60792 9.57102 3.0258 10.161 3.58944 10.5838C4.15308 11.0066 4.83414 11.2409 5.53688 11.2538C4.34565 12.2033 2.86904 12.7165 1.34973 12.7092C1.08263 12.7092 0.81553 12.6934 0.548431 12.6617C2.04104 13.6267 3.81646 14.1883 5.71757 14.1883C11.908 14.1883 15.3095 9.01539 15.3095 4.53064C15.3095 4.38036 15.3095 4.23799 15.3017 4.0877C15.9616 3.61313 16.5272 3.012 16.9828 2.32386Z" fill="#FAFAFA"/>
</svg>
